MOT_standard
version=1
nRows=41
nColumns=19
endheader
time	ground_force_vx	ground_force_vy	ground_force_vz	ground_force_px	ground_force_py	ground_force_pz	1_ground_force_vx	1_ground_force_vy	1_ground_force_vz	1_ground_force_px	1_ground_force_py	1_ground_force_pz	ground_torque_x	ground_torque_y	ground_torque_z	1_ground_torque_x	1_ground_torque_y	1_ground_torque_z	
16.75	-108.452725	699.247131	222.250436	0.66535	0.0	-0.527719	52.228004	0.662316	68.68998	0.305484	0.0	-0.803785	49.310241	5.824231	-155.91491	-2.20171	-23.208199	-1.154917	
16.76	-122.708584	702.129089	235.561442	0.660952	0.0	-0.530508	52.849045	38.749565	111.101822	0.282021	0.0	-0.87528	51.47196	14.461787	-159.645332	-7.60225	-15.830589	1.877745	
16.77	-108.527757	691.878418	261.051584	0.658093	0.0	-0.543044	81.981361	48.356422	86.307297	0.0	0.0	0.0	59.393448	5.237583	-159.292708	-12.462799	-12.597668	-0.367146	
16.78	-54.653131	696.255005	213.383427	0.669752	0.0	-0.560914	37.941952	26.765162	69.845238	0.321657	0.0	-0.772848	72.211292	13.569563	-152.182506	-5.60216	-6.058409	0.61315	
16.79	-122.106956	670.820557	284.219523	0.65427	0.0	-0.570511	81.837875	10.120569	103.643646	0.341196	0.0	-0.783929	76.011573	12.727641	-157.008787	0.314094	-17.718037	0.46986	
16.8	-70.576392	706.676941	201.149756	0.677735	0.0	-0.56419	41.848026	8.291479	59.736958	0.0	0.0	0.0	75.607457	22.125746	-148.818756	0.274093	-9.429773	-0.121609	
16.81	-152.851078	694.331787	320.982221	0.656315	0.0	-0.561165	95.751175	-56.808994	-145.111925	0.328161	0.0	-0.797215	72.185995	12.235073	-161.091678	-13.544105	9.929674	-2.963221	
16.82	-92.750434	824.486633	284.625374	0.686245	0.0	-0.510551	70.411118	40.12608	70.675362	0.0	0.0	0.0	43.987189	19.6699	-166.612566	-7.868009	-16.200908	-0.505372	
16.83	-61.603349	881.880676	268.870794	0.702333	0.0	-0.496002	39.225586	10.432194	82.783119	0.0	0.0	0.0	34.219182	27.707719	-164.022425	-5.397596	-11.532665	0.289672	
16.84	-72.179444	855.55188	272.252905	0.699056	0.0	-0.513602	60.804691	5.892862	80.395241	0.276761	0.0	-1.065728	48.254467	26.976191	-161.928973	-9.468217	-19.48809	-2.936278	
16.85	-111.073944	799.00238	280.457956	0.692187	0.0	-0.510345	61.447906	40.868946	84.102013	0.0	0.0	0.0	42.462624	18.965588	-156.71455	-13.182952	-8.269592	0.358099	
16.86	-93.552386	805.238464	253.330132	0.702489	0.0	-0.534337	63.454494	42.954056	97.372879	0.0	0.0	0.0	62.113792	13.148372	-149.641864	-4.105136	-13.164637	0.476424	
16.87	-92.103402	753.392273	268.495491	0.693329	0.0	-0.501471	57.1194	16.902205	73.960213	0.0	0.0	0.0	33.353261	27.010518	-146.90819	-4.942641	-7.266468	0.779806	
16.88	-75.049785	764.57373	246.468329	0.706393	0.0	-0.516371	45.708851	16.569698	71.70459	0.0	0.0	0.0	45.240477	7.210264	-139.100191	-7.392049	-11.366497	-1.69324	
16.89	-150.754067	758.646851	273.316571	0.699901	0.0	-0.493706	76.101021	27.819805	97.136749	0.0	0.0	0.0	27.694889	25.039451	-142.947471	0.995222	-17.67365	1.757962	
16.9	-113.14436	766.069031	227.768152	0.717432	0.0	-0.47706	58.221096	31.962734	91.322624	0.0	0.0	0.0	15.214144	5.886098	-130.915681	-8.525425	-3.078351	-2.044201	
16.91	-153.674631	735.611694	254.735105	0.713174	0.0	-0.468432	62.634251	29.226488	76.636536	0.0	0.0	0.0	8.262461	12.250956	-128.842743	-14.874973	-19.653645	-1.3792	
16.92	-118.318007	753.549011	198.488047	0.730949	0.0	-0.436735	45.488724	17.54616	86.587349	0.0	0.0	0.0	-15.421539	6.806231	-118.590842	4.771253	-1.796414	1.660039	
16.93	-157.755048	728.580383	218.234434	0.731078	0.0	-0.417317	69.733994	31.325603	82.817444	0.0	0.0	0.0	-29.057711	8.841028	-114.567373	-3.331467	-17.73409	0.884482	
16.94	-137.282974	691.187744	183.471004	0.739481	0.0	-0.392852	54.277821	20.773451	82.906342	0.0	0.0	0.0	-44.476426	1.881953	-102.879129	-9.971554	-3.191048	-0.086899	
16.95	-161.54837	665.609619	185.850187	0.744827	0.0	-0.360312	66.900276	31.869909	92.868599	0.0	0.0	0.0	-64.489402	1.629995	-95.513838	-14.527797	-14.718927	-1.696772	
16.96	-167.950334	618.514465	167.411406	0.743858	0.0	-0.304205	61.506508	29.141911	92.731926	0.315098	0.0	-0.83672	-94.629843	-4.245173	-89.354836	-1.483231	-16.728584	-0.345115	
16.97	-102.730667	623.42395	94.881554	0.766872	0.0	-0.299766	42.724098	20.028688	54.713654	0.0	0.0	0.0	-98.147959	-15.016359	-75.716758	-1.032306	-7.847735	-0.991669	
16.98	-138.106543	642.952332	105.546818	0.76227	0.0	-0.271123	51.447414	31.445873	83.267548	0.0	0.0	0.0	-119.638686	-6.854359	-81.047592	-6.034094	-9.220197	-0.323726	
16.99	-161.900045	654.678894	125.482206	0.760741	0.0	-0.282004	76.729019	31.151793	92.595245	0.0	0.0	0.0	-114.697233	-14.602417	-83.526241	1.370085	-22.034111	1.024084	
17.0	-142.077658	645.386902	117.05592	0.76255	0.0	-0.276978	61.327713	39.066296	88.751801	0.0	0.0	0.0	-116.312905	-15.291976	-81.173248	-9.730112	-12.010974	-3.603861	
17.01	-120.946493	684.381714	113.475062	0.77069	0.0	-0.283436	65.945564	19.653193	82.977844	0.0	0.0	0.0	-118.920553	-9.88056	-80.506998	11.360893	-9.281562	4.029261	
17.02	-141.423804	703.155029	114.241398	0.77207	0.0	-0.304261	50.835876	11.627353	65.886665	0.0	0.0	0.0	-107.539905	-15.381738	-81.745272	0.596205	-20.992068	0.46278	
17.03	-131.570457	703.271606	92.887363	0.772811	0.0	-0.305394	65.713455	33.519394	105.568733	0.0	0.0	0.0	-106.76103	-5.54154	-81.237546	-1.72971	0.600305	1.785743	
17.04	-177.131577	665.270935	179.898971	0.761268	0.0	-0.309863	81.854164	41.685505	86.338722	0.0	0.0	0.0	-98.019327	-16.668834	-84.527273	-14.348378	-29.582387	-2.721351	
17.05	-141.936926	704.352112	119.95213	0.77574	0.0	-0.312695	43.345287	30.752136	78.468033	0.0	0.0	0.0	-101.78271	-3.721296	-79.299492	-12.270288	-11.223179	-2.650952	
17.06	-134.412449	702.648682	132.328289	0.777078	0.0	-0.325053	71.903824	17.243029	99.112183	0.0	0.0	0.0	-92.852952	-14.162886	-78.167485	3.000194	-2.988112	5.124779	
17.07	-154.860173	681.048645	134.388242	0.769935	0.0	-0.326794	53.738422	12.63856	51.369171	0.0	0.0	0.0	-88.812764	-3.741899	-80.62954	1.986149	-28.618031	0.766042	
17.08	-120.520072	711.711304	106.305048	0.78017	0.0	-0.338521	41.649231	30.345325	92.437279	0.0	0.0	0.0	-84.465366	-5.699606	-76.97536	-2.780812	8.032894	1.126016	
17.09	-136.608127	684.424377	152.416836	0.77695	0.0	-0.34304	56.990738	26.958874	65.994148	0.0	0.0	0.0	-78.13392	-12.496003	-76.227408	-15.684281	-20.889768	-2.743653	
17.1	-142.80077	681.726746	132.082714	0.777324	0.0	-0.356168	47.066944	18.40757	74.822891	0.0	0.0	0.0	-68.876092	1.692524	-75.672315	-9.775291	-7.402838	-0.030301	
17.11	-171.640076	675.65741	183.274871	0.766958	0.0	-0.349909	73.51178	31.537689	104.475403	0.0	0.0	0.0	-72.4921	-22.100393	-82.002408	-4.456716	-16.103271	0.563353	
17.12	-139.414738	669.213013	131.453365	0.773496	0.0	-0.346345	57.488361	29.746494	68.933762	0.0	0.0	0.0	-74.18585	0.703161	-76.844955	-1.311902	-14.997413	1.547249	
17.13	-184.367798	639.797668	189.380722	0.762947	0.0	-0.354863	77.287842	35.766602	112.121391	0.0	0.0	0.0	-65.474858	-12.040111	-80.216315	-1.488328	-21.152055	0.870304	
17.14	-165.441714	648.055664	156.350645	0.771731	0.0	-0.360034	66.896553	14.152927	85.66552	0.27419	0.0	-0.970493	-62.969213	-9.927745	-75.559596	8.566292	-13.711099	0.691424	
17.15	-171.66672	647.950684	159.120391	0.769944	0.0	-0.367704	83.672226	26.50828	103.330902	0.0	0.0	0.0	-57.989256	-0.103985	-76.704964	10.314718	-16.685719	2.955396	
